<svg version="1.1" xmlns="http://www.w3.org/2000/svg" xmlns:xlink="http://www.w3.org/1999/xlink" width="803.60986328125" height="616"><defs/><g><g transform="translate(-22,2) scale(1,1)"><rect fill="#C0C0C0" stroke="none" x="39" y="63" width="50.919921875" height="44" opacity="0.2"/></g><g transform="translate(-22,2) scale(1,1)"><rect fill="#ffffff" stroke="none" x="32" y="56" width="50.919921875" height="44"/></g><g transform="translate(-22,2) scale(1,1)"><path fill="none" stroke="#000000" d="M 32 56 L 82.919921875 56 L 82.919921875 100 L 32 100 L 32 56 Z Z" stroke-miterlimit="10"/></g><g transform="translate(-22,2) scale(1,1)"><path fill="none" stroke="#000000" d="M 32 81 L 82.919921875 81" stroke-miterlimit="10"/></g><g transform="translate(-22,2) scale(1,1)"><path fill="none" stroke="#000000" d="M 32 91 L 82.919921875 91" stroke-miterlimit="10"/></g><g transform="translate(-22,2) scale(1,1)"><g><path fill="none" stroke="none"/><text fill="#000000" stroke="none" font-family="Arial" font-size="13px" font-style="normal" font-weight="bold" text-decoration="none" x="38.680419921875" y="75.5">Form1</text></g></g><g transform="translate(-22,2) scale(1,1)"><rect fill="#C0C0C0" stroke="none" x="167" y="63" width="50.919921875" height="44" opacity="0.2"/></g><g transform="translate(-22,2) scale(1,1)"><rect fill="#ffffff" stroke="none" x="160" y="56" width="50.919921875" height="44"/></g><g transform="translate(-22,2) scale(1,1)"><path fill="none" stroke="#000000" d="M 160 56 L 210.919921875 56 L 210.919921875 100 L 160 100 L 160 56 Z Z" stroke-miterlimit="10"/></g><g transform="translate(-22,2) scale(1,1)"><path fill="none" stroke="#000000" d="M 160 81 L 210.919921875 81" stroke-miterlimit="10"/></g><g transform="translate(-22,2) scale(1,1)"><path fill="none" stroke="#000000" d="M 160 91 L 210.919921875 91" stroke-miterlimit="10"/></g><g transform="translate(-22,2) scale(1,1)"><g><path fill="none" stroke="none"/><text fill="#000000" stroke="none" font-family="Arial" font-size="13px" font-style="normal" font-weight="bold" text-decoration="none" x="166.680419921875" y="75.5">Form2</text></g></g><g transform="translate(-22,2) scale(1,1)"><path fill="none" stroke="#000000" d="M 84 78 L 159 78" stroke-miterlimit="10"/></g><g transform="translate(-22,2) scale(1,1)"><path fill="#FFFFFF" stroke="none" d="M 138.6746502847517 86.41903551203198 L 159 78 L 138.6746502847517 69.58096448796803"/></g><g transform="translate(-22,2) scale(1,1)"><path fill="none" stroke="#000000" d="M 138.6746502847517 86.41903551203198 L 159 78 L 138.6746502847517 69.58096448796803 L 138.6746502847517 86.41903551203198" stroke-miterlimit="10"/></g><g transform="translate(-22,2) scale(1,1)"><g><path fill="none" stroke="none"/><text fill="#000000" stroke="none" font-family="Arial" font-size="13px" font-style="normal" font-weight="normal" text-decoration="none" x="99.5" y="69.5">+Entrar</text></g></g><g transform="translate(-22,2) scale(1,1)"><rect fill="#C0C0C0" stroke="none" x="407" y="63" width="50.919921875" height="44" opacity="0.2"/></g><g transform="translate(-22,2) scale(1,1)"><rect fill="#ffffff" stroke="none" x="400" y="56" width="50.919921875" height="44"/></g><g transform="translate(-22,2) scale(1,1)"><path fill="none" stroke="#000000" d="M 400 56 L 450.919921875 56 L 450.919921875 100 L 400 100 L 400 56 Z Z" stroke-miterlimit="10"/></g><g transform="translate(-22,2) scale(1,1)"><path fill="none" stroke="#000000" d="M 400 81 L 450.919921875 81" stroke-miterlimit="10"/></g><g transform="translate(-22,2) scale(1,1)"><path fill="none" stroke="#000000" d="M 400 91 L 450.919921875 91" stroke-miterlimit="10"/></g><g transform="translate(-22,2) scale(1,1)"><g><path fill="none" stroke="none"/><text fill="#000000" stroke="none" font-family="Arial" font-size="13px" font-style="normal" font-weight="bold" text-decoration="none" x="406.680419921875" y="75.5">Form3</text></g></g><g transform="translate(-22,2) scale(1,1)"><path fill="none" stroke="#000000" d="M 212 78 L 399 78" stroke-miterlimit="10"/></g><g transform="translate(-22,2) scale(1,1)"><path fill="#FFFFFF" stroke="none" d="M 378.6746502847517 86.41903551203198 L 399 78 L 378.6746502847517 69.58096448796803"/></g><g transform="translate(-22,2) scale(1,1)"><path fill="none" stroke="#000000" d="M 378.6746502847517 86.41903551203198 L 399 78 L 378.6746502847517 69.58096448796803 L 378.6746502847517 86.41903551203198" stroke-miterlimit="10"/></g><g transform="translate(-22,2) scale(1,1)"><g><path fill="none" stroke="none"/><text fill="#000000" stroke="none" font-family="Arial" font-size="13px" font-style="normal" font-weight="normal" text-decoration="none" x="238.5" y="69.5">+Usuario y Contraseña</text></g></g><g transform="translate(-22,2) scale(1,1)"><g><path fill="none" stroke="none"/><text fill="#000000" stroke="none" font-family="Arial" font-size="13px" font-style="normal" font-weight="normal" text-decoration="none" x="141" y="26">PER = 1</text></g></g><g transform="translate(-22,2) scale(1,1)"><g><path fill="none" stroke="none"/><text fill="#000000" stroke="none" font-family="Arial" font-size="13px" font-style="normal" font-weight="normal" text-decoration="none" x="141" y="41">(Número de Periodo)</text></g></g><g transform="translate(-22,2) scale(1,1)"><path fill="none" stroke="#000000" d="M 425 100 L 425 160 M 425 160 A 8 8 0 0 1 417 168 L 176 168 M 176 168 A 8 8 0 0 1 168 160 L 168 100" stroke-miterlimit="10"/></g><g transform="translate(-22,2) scale(1,1)"><path fill="#FFFFFF" stroke="none" d="M 176.41903551203197 120.32534971524831 L 168 100 L 159.58096448796803 120.32534971524831"/></g><g transform="translate(-22,2) scale(1,1)"><path fill="none" stroke="#000000" d="M 176.41903551203197 120.32534971524831 L 168 100 L 159.58096448796803 120.32534971524831 L 176.41903551203197 120.32534971524831" stroke-miterlimit="10"/></g><g transform="translate(-22,2) scale(1,1)"><g><path fill="none" stroke="none"/><text fill="#000000" stroke="none" font-family="Arial" font-size="13px" font-style="normal" font-weight="normal" text-decoration="none" x="265.5" y="189.5">+Cancelar</text></g></g><g transform="translate(-22,2) scale(1,1)"><rect fill="#C0C0C0" stroke="none" x="583" y="63" width="102.53271484375" height="72" opacity="0.2"/></g><g transform="translate(-22,2) scale(1,1)"><rect fill="#ffffff" stroke="none" x="576" y="56" width="102.53271484375" height="72"/></g><g transform="translate(-22,2) scale(1,1)"><path fill="none" stroke="#000000" d="M 576 56 L 678.53271484375 56 L 678.53271484375 128 L 576 128 L 576 56 Z Z" stroke-miterlimit="10"/></g><g transform="translate(-22,2) scale(1,1)"><path fill="none" stroke="#000000" d="M 576 81 L 678.53271484375 81" stroke-miterlimit="10"/></g><g transform="translate(-22,2) scale(1,1)"><path fill="none" stroke="#000000" d="M 576 91 L 678.53271484375 91" stroke-miterlimit="10"/></g><g transform="translate(-22,2) scale(1,1)"><g><path fill="none" stroke="none"/><text fill="#000000" stroke="none" font-family="Arial" font-size="13px" font-style="normal" font-weight="bold" text-decoration="none" x="608.48681640625" y="75.5">Form5</text></g></g><g transform="translate(-22,2) scale(1,1)"><g><path fill="none" stroke="none"/><text fill="#000000" stroke="none" font-family="Arial" font-size="13px" font-style="normal" font-weight="normal" text-decoration="none" x="581" y="108.5">+imprimirTexto()</text></g></g><g transform="translate(-22,2) scale(1,1)"><g><path fill="none" stroke="none"/><text fill="#000000" stroke="none" font-family="Arial" font-size="13px" font-style="normal" font-weight="normal" text-decoration="none" x="581" y="123.5">+areaDiseño()</text></g></g><g transform="translate(-22,2) scale(1,1)"><path fill="none" stroke="#000000" d="M 452 80 L 575 88" stroke-miterlimit="10"/></g><g transform="translate(-22,2) scale(1,1)"><path fill="#FFFFFF" stroke="none" d="M 554.1710803906648 95.08209770533078 L 575 88 L 555.2639303869845 78.27952901191472"/></g><g transform="translate(-22,2) scale(1,1)"><path fill="none" stroke="#000000" d="M 554.1710803906648 95.08209770533078 L 575 88 L 555.2639303869845 78.27952901191472 L 554.1710803906648 95.08209770533078" stroke-miterlimit="10"/></g><g transform="translate(-22,2) scale(1,1)"><g><path fill="none" stroke="none"/><text fill="#000000" stroke="none" font-family="Arial" font-size="13px" font-style="normal" font-weight="normal" text-decoration="none" x="483.5" y="75.5">+Opción 1</text></g></g><g transform="translate(-22,2) scale(1,1)"><rect fill="#C0C0C0" stroke="none" x="471" y="159" width="90.64990234375" height="44" opacity="0.2"/></g><g transform="translate(-22,2) scale(1,1)"><rect fill="#ffffff" stroke="none" x="464" y="152" width="90.64990234375" height="44"/></g><g transform="translate(-22,2) scale(1,1)"><path fill="none" stroke="#000000" d="M 464 152 L 554.64990234375 152 L 554.64990234375 196 L 464 196 L 464 152 Z Z" stroke-miterlimit="10"/></g><g transform="translate(-22,2) scale(1,1)"><path fill="none" stroke="#000000" d="M 464 177 L 554.64990234375 177" stroke-miterlimit="10"/></g><g transform="translate(-22,2) scale(1,1)"><path fill="none" stroke="#000000" d="M 464 187 L 554.64990234375 187" stroke-miterlimit="10"/></g><g transform="translate(-22,2) scale(1,1)"><g><path fill="none" stroke="none"/><text fill="#000000" stroke="none" font-family="Arial" font-size="13px" font-style="normal" font-weight="bold" text-decoration="none" x="471.75" y="171.5">MessageBox</text></g></g><g transform="translate(-22,2) scale(1,1)"><path fill="none" stroke="#000000" d="M 445 101 L 489 151" stroke-miterlimit="10"/></g><g transform="translate(-22,2) scale(1,1)"><path fill="#FFFFFF" stroke="none" d="M 469.2522232463362 141.30333493991589 L 489 151 L 481.8927907630064 130.17963552524614"/></g><g transform="translate(-22,2) scale(1,1)"><path fill="none" stroke="#000000" d="M 469.2522232463362 141.30333493991589 L 489 151 L 481.8927907630064 130.17963552524614 L 469.2522232463362 141.30333493991589" stroke-miterlimit="10"/></g><g transform="translate(-22,2) scale(1,1)"><g><path fill="none" stroke="none"/><text fill="#000000" stroke="none" font-family="Arial" font-size="13px" font-style="normal" font-weight="normal" text-decoration="none" x="469.5" y="123.5">+Opción 2 o 3</text></g></g><g transform="translate(-22,2) scale(1,1)"><rect fill="#C0C0C0" stroke="none" x="663" y="199" width="50.919921875" height="44" opacity="0.2"/></g><g transform="translate(-22,2) scale(1,1)"><rect fill="#ffffff" stroke="none" x="656" y="192" width="50.919921875" height="44"/></g><g transform="translate(-22,2) scale(1,1)"><path fill="none" stroke="#000000" d="M 656 192 L 706.919921875 192 L 706.919921875 236 L 656 236 L 656 192 Z Z" stroke-miterlimit="10"/></g><g transform="translate(-22,2) scale(1,1)"><path fill="none" stroke="#000000" d="M 656 217 L 706.919921875 217" stroke-miterlimit="10"/></g><g transform="translate(-22,2) scale(1,1)"><path fill="none" stroke="#000000" d="M 656 227 L 706.919921875 227" stroke-miterlimit="10"/></g><g transform="translate(-22,2) scale(1,1)"><g><path fill="none" stroke="none"/><text fill="#000000" stroke="none" font-family="Arial" font-size="13px" font-style="normal" font-weight="bold" text-decoration="none" x="662.680419921875" y="211.5">Form7</text></g></g><g transform="translate(-22,2) scale(1,1)"><path fill="none" stroke="#000000" d="M 643 129 L 671 191" stroke-miterlimit="10"/></g><g transform="translate(-22,2) scale(1,1)"><path fill="#FFFFFF" stroke="none" d="M 654.9614944853803 175.9412370741314 L 671 191 L 670.3072173716769 169.01091060935232"/></g><g transform="translate(-22,2) scale(1,1)"><path fill="none" stroke="#000000" d="M 654.9614944853803 175.9412370741314 L 671 191 L 670.3072173716769 169.01091060935232 L 654.9614944853803 175.9412370741314" stroke-miterlimit="10"/></g><g transform="translate(-22,2) scale(1,1)"><g><path fill="none" stroke="none"/><text fill="#000000" stroke="none" font-family="Arial" font-size="13px" font-style="normal" font-weight="normal" text-decoration="none" x="662.5" y="156.5">+areaDiseño</text></g></g><g transform="translate(-22,2) scale(1,1)"><path fill="#ffffff" stroke="none" d="M 720 216 L 804.60986328125 216 L 814.60986328125 226 L 814.60986328125 279 L 720 279 L 720 216"/></g><g transform="translate(-22,2) scale(1,1)"><path fill="none" stroke="#000000" d="M 720 216 L 804.60986328125 216 L 814.60986328125 226 L 814.60986328125 279 L 720 279 L 720 216 L 720 216" stroke-miterlimit="10"/></g><g transform="translate(-22,2) scale(1,1)"><path fill="none" stroke="#000000" d="M 804.60986328125 216 L 804.60986328125 226 L 814.60986328125 226 L 804.60986328125 216" stroke-miterlimit="10"/></g><g transform="translate(-22,2) scale(1,1)"><g><path fill="none" stroke="none"/><text fill="#000000" stroke="none" font-family="Arial" font-size="13px" font-style="normal" font-weight="normal" text-decoration="none" x="725" y="234">El campo de</text><text fill="#000000" stroke="none" font-family="Arial" font-size="13px" font-style="normal" font-weight="normal" text-decoration="none" x="725" y="247">texto2 debería</text><text fill="#000000" stroke="none" font-family="Arial" font-size="13px" font-style="normal" font-weight="normal" text-decoration="none" x="725" y="260">estar</text><text fill="#000000" stroke="none" font-family="Arial" font-size="13px" font-style="normal" font-weight="normal" text-decoration="none" x="725" y="273">desactivado?</text></g></g><g transform="translate(-22,2) scale(1,1)"><path fill="#ffffff" stroke="none" d="M 208 88 L 293 88 L 303 98 L 303 137 L 208 137 L 208 88"/></g><g transform="translate(-22,2) scale(1,1)"><path fill="none" stroke="#000000" d="M 208 88 L 293 88 L 303 98 L 303 137 L 208 137 L 208 88 L 208 88" stroke-miterlimit="10"/></g><g transform="translate(-22,2) scale(1,1)"><path fill="none" stroke="#000000" d="M 293 88 L 293 98 L 303 98 L 293 88" stroke-miterlimit="10"/></g><g transform="translate(-22,2) scale(1,1)"><g><path fill="none" stroke="none"/><text fill="#000000" stroke="none" font-family="Arial" font-size="13px" font-style="normal" font-weight="normal" text-decoration="none" x="213" y="106">¿Qué hace el</text><text fill="#000000" stroke="none" font-family="Arial" font-size="13px" font-style="normal" font-weight="normal" text-decoration="none" x="213" y="119">número de</text><text fill="#000000" stroke="none" font-family="Arial" font-size="13px" font-style="normal" font-weight="normal" text-decoration="none" x="213" y="132">Periodo?</text></g></g><g transform="translate(-22,2) scale(1,1)"><rect fill="#C0C0C0" stroke="none" x="519" y="279" width="64.47900390625" height="44" opacity="0.2"/></g><g transform="translate(-22,2) scale(1,1)"><rect fill="#ffffff" stroke="none" x="512" y="272" width="64.47900390625" height="44"/></g><g transform="translate(-22,2) scale(1,1)"><path fill="none" stroke="#000000" d="M 512 272 L 576.47900390625 272 L 576.47900390625 316 L 512 316 L 512 272 Z Z" stroke-miterlimit="10"/></g><g transform="translate(-22,2) scale(1,1)"><path fill="none" stroke="#000000" d="M 512 297 L 576.47900390625 297" stroke-miterlimit="10"/></g><g transform="translate(-22,2) scale(1,1)"><path fill="none" stroke="#000000" d="M 512 307 L 576.47900390625 307" stroke-miterlimit="10"/></g><g transform="translate(-22,2) scale(1,1)"><g><path fill="none" stroke="none"/><text fill="#000000" stroke="none" font-family="Arial" font-size="13px" font-style="normal" font-weight="bold" text-decoration="none" x="521.844970703125" y="291.5">Form14</text></g></g><g transform="translate(-22,2) scale(1,1)"><path fill="none" stroke="#000000" d="M 655 229 L 577 274" stroke-miterlimit="10"/></g><g transform="translate(-22,2) scale(1,1)"><path fill="#FFFFFF" stroke="none" d="M 590.3983438726566 256.55051916330905 L 577 274 L 598.8127060368336 271.13541358121586"/></g><g transform="translate(-22,2) scale(1,1)"><path fill="none" stroke="#000000" d="M 590.3983438726566 256.55051916330905 L 577 274 L 598.8127060368336 271.13541358121586 L 590.3983438726566 256.55051916330905" stroke-miterlimit="10"/></g><g transform="translate(-22,2) scale(1,1)"><g><path fill="none" stroke="none"/><text fill="#000000" stroke="none" font-family="Arial" font-size="13px" font-style="normal" font-weight="normal" text-decoration="none" x="614.5" y="269.5">+Continuar</text></g></g><g transform="translate(-22,2) scale(1,1)"><rect fill="#C0C0C0" stroke="none" x="263" y="255" width="124.248046875" height="147" opacity="0.2"/></g><g transform="translate(-22,2) scale(1,1)"><rect fill="#ffffff" stroke="none" x="256" y="248" width="124.248046875" height="147"/></g><g transform="translate(-22,2) scale(1,1)"><path fill="none" stroke="#000000" d="M 256 248 L 380.248046875 248 L 380.248046875 395 L 256 395 L 256 248 Z Z" stroke-miterlimit="10"/></g><g transform="translate(-22,2) scale(1,1)"><path fill="none" stroke="#000000" d="M 256 273 L 380.248046875 273" stroke-miterlimit="10"/></g><g transform="translate(-22,2) scale(1,1)"><path fill="none" stroke="#000000" d="M 256 283 L 380.248046875 283" stroke-miterlimit="10"/></g><g transform="translate(-22,2) scale(1,1)"><g><path fill="none" stroke="none"/><text fill="#000000" stroke="none" font-family="Arial" font-size="13px" font-style="normal" font-weight="bold" text-decoration="none" x="295.7294921875" y="267.5">Form10</text></g></g><g transform="translate(-22,2) scale(1,1)"><g><path fill="none" stroke="none"/><text fill="#000000" stroke="none" font-family="Arial" font-size="13px" font-style="normal" font-weight="normal" text-decoration="none" x="261" y="300.5">+estudiosMercado()</text></g></g><g transform="translate(-22,2) scale(1,1)"><g><path fill="none" stroke="none"/><text fill="#000000" stroke="none" font-family="Arial" font-size="13px" font-style="normal" font-weight="normal" text-decoration="none" x="261" y="315.5">+diseñoProducto()</text></g></g><g transform="translate(-22,2) scale(1,1)"><g><path fill="none" stroke="none"/><text fill="#000000" stroke="none" font-family="Arial" font-size="13px" font-style="normal" font-weight="normal" text-decoration="none" x="261" y="330.5">+produccion()</text></g></g><g transform="translate(-22,2) scale(1,1)"><g><path fill="none" stroke="none"/><text fill="#000000" stroke="none" font-family="Arial" font-size="13px" font-style="normal" font-weight="normal" text-decoration="none" x="261" y="345.5">+promoción()</text></g></g><g transform="translate(-22,2) scale(1,1)"><g><path fill="none" stroke="none"/><text fill="#000000" stroke="none" font-family="Arial" font-size="13px" font-style="normal" font-weight="normal" text-decoration="none" x="261" y="360.5">+distPrecio()</text></g></g><g transform="translate(-22,2) scale(1,1)"><g><path fill="none" stroke="none"/><text fill="#000000" stroke="none" font-family="Arial" font-size="13px" font-style="normal" font-weight="normal" text-decoration="none" x="261" y="375.5">+finalizarPeriodo()</text></g></g><g transform="translate(-22,2) scale(1,1)"><g><path fill="none" stroke="none"/><text fill="#000000" stroke="none" font-family="Arial" font-size="13px" font-style="normal" font-weight="normal" text-decoration="none" x="261" y="390.5">+imprimirFicha()</text></g></g><g transform="translate(-22,2) scale(1,1)"><path fill="none" stroke="#000000" d="M 511 298 L 381 313" stroke-miterlimit="10"/></g><g transform="translate(-22,2) scale(1,1)"><path fill="#FFFFFF" stroke="none" d="M 400.2263595961716 302.3066798103349 L 381 313 L 402.1564084674952 319.03377002847276"/></g><g transform="translate(-22,2) scale(1,1)"><path fill="none" stroke="#000000" d="M 400.2263595961716 302.3066798103349 L 381 313 L 402.1564084674952 319.03377002847276 L 400.2263595961716 302.3066798103349" stroke-miterlimit="10"/></g><g transform="translate(-22,2) scale(1,1)"><rect fill="#C0C0C0" stroke="none" x="543" y="439" width="55.9599609375" height="44" opacity="0.2"/></g><g transform="translate(-22,2) scale(1,1)"><rect fill="#ffffff" stroke="none" x="536" y="432" width="55.9599609375" height="44"/></g><g transform="translate(-22,2) scale(1,1)"><path fill="none" stroke="#000000" d="M 536 432 L 591.9599609375 432 L 591.9599609375 476 L 536 476 L 536 432 Z Z" stroke-miterlimit="10"/></g><g transform="translate(-22,2) scale(1,1)"><path fill="none" stroke="#000000" d="M 536 457 L 591.9599609375 457" stroke-miterlimit="10"/></g><g transform="translate(-22,2) scale(1,1)"><path fill="none" stroke="#000000" d="M 536 467 L 591.9599609375 467" stroke-miterlimit="10"/></g><g transform="translate(-22,2) scale(1,1)"><g><path fill="none" stroke="none"/><text fill="#000000" stroke="none" font-family="Arial" font-size="13px" font-style="normal" font-weight="bold" text-decoration="none" x="541.58544921875" y="451.5">Form15</text></g></g><g transform="translate(-22,2) scale(1,1)"><path fill="none" stroke="#000000" d="M 381 355 L 535 439" stroke-miterlimit="10"/></g><g transform="translate(-22,2) scale(1,1)"><path fill="#FFFFFF" stroke="none" d="M 513.124992373835 436.65819698624745 L 535 439 L 521.1879385602588 421.8761289778037"/></g><g transform="translate(-22,2) scale(1,1)"><path fill="none" stroke="#000000" d="M 513.124992373835 436.65819698624745 L 535 439 L 521.1879385602588 421.8761289778037 L 513.124992373835 436.65819698624745" stroke-miterlimit="10"/></g><g transform="translate(-22,2) scale(1,1)"><rect fill="#C0C0C0" stroke="none" x="295" y="503" width="50.919921875" height="48" opacity="0.2"/></g><g transform="translate(-22,2) scale(1,1)"><rect fill="#ffffff" stroke="none" x="288" y="496" width="50.919921875" height="48"/></g><g transform="translate(-22,2) scale(1,1)"><path fill="none" stroke="#000000" d="M 288 496 L 338.919921875 496 L 338.919921875 544 L 288 544 L 288 496 Z Z" stroke-miterlimit="10"/></g><g transform="translate(-22,2) scale(1,1)"><path fill="none" stroke="#000000" d="M 288 521 L 338.919921875 521" stroke-miterlimit="10"/></g><g transform="translate(-22,2) scale(1,1)"><path fill="none" stroke="#000000" d="M 288 531 L 338.919921875 531" stroke-miterlimit="10"/></g><g transform="translate(-22,2) scale(1,1)"><g><path fill="none" stroke="none"/><text fill="#000000" stroke="none" font-family="Arial" font-size="13px" font-style="normal" font-weight="bold" text-decoration="none" x="294.680419921875" y="515.5">Form9</text></g></g><g transform="translate(-22,2) scale(1,1)"><path fill="none" stroke="#000000" d="M 316 396 L 314 495" stroke-miterlimit="10"/></g><g transform="translate(-22,2) scale(1,1)"><path fill="#FFFFFF" stroke="none" d="M 305.9932113186428 474.50874979382445 L 314 495 L 322.8278474036616 474.84884345210764"/></g><g transform="translate(-22,2) scale(1,1)"><path fill="none" stroke="#000000" d="M 305.9932113186428 474.50874979382445 L 314 495 L 322.8278474036616 474.84884345210764 L 305.9932113186428 474.50874979382445" stroke-miterlimit="10"/></g><g transform="translate(-22,2) scale(1,1)"><rect fill="#C0C0C0" stroke="none" x="71" y="439" width="55.9599609375" height="44" opacity="0.2"/></g><g transform="translate(-22,2) scale(1,1)"><rect fill="#ffffff" stroke="none" x="64" y="432" width="55.9599609375" height="44"/></g><g transform="translate(-22,2) scale(1,1)"><path fill="none" stroke="#000000" d="M 64 432 L 119.9599609375 432 L 119.9599609375 476 L 64 476 L 64 432 Z Z" stroke-miterlimit="10"/></g><g transform="translate(-22,2) scale(1,1)"><path fill="none" stroke="#000000" d="M 64 457 L 119.9599609375 457" stroke-miterlimit="10"/></g><g transform="translate(-22,2) scale(1,1)"><path fill="none" stroke="#000000" d="M 64 467 L 119.9599609375 467" stroke-miterlimit="10"/></g><g transform="translate(-22,2) scale(1,1)"><g><path fill="none" stroke="none"/><text fill="#000000" stroke="none" font-family="Arial" font-size="13px" font-style="normal" font-weight="bold" text-decoration="none" x="69.58544921875" y="451.5">Form13</text></g></g><g transform="translate(-22,2) scale(1,1)"><rect fill="#C0C0C0" stroke="none" x="63" y="287" width="50.919921875" height="44" opacity="0.2"/></g><g transform="translate(-22,2) scale(1,1)"><rect fill="#ffffff" stroke="none" x="56" y="280" width="50.919921875" height="44"/></g><g transform="translate(-22,2) scale(1,1)"><path fill="none" stroke="#000000" d="M 56 280 L 106.919921875 280 L 106.919921875 324 L 56 324 L 56 280 Z Z" stroke-miterlimit="10"/></g><g transform="translate(-22,2) scale(1,1)"><path fill="none" stroke="#000000" d="M 56 305 L 106.919921875 305" stroke-miterlimit="10"/></g><g transform="translate(-22,2) scale(1,1)"><path fill="none" stroke="#000000" d="M 56 315 L 106.919921875 315" stroke-miterlimit="10"/></g><g transform="translate(-22,2) scale(1,1)"><g><path fill="none" stroke="none"/><text fill="#000000" stroke="none" font-family="Arial" font-size="13px" font-style="normal" font-weight="bold" text-decoration="none" x="62.680419921875" y="299.5">Form6</text></g></g><g transform="translate(-22,2) scale(1,1)"><rect fill="#C0C0C0" stroke="none" x="447" y="567" width="55.9599609375" height="44" opacity="0.2"/></g><g transform="translate(-22,2) scale(1,1)"><rect fill="#ffffff" stroke="none" x="440" y="560" width="55.9599609375" height="44"/></g><g transform="translate(-22,2) scale(1,1)"><path fill="none" stroke="#000000" d="M 440 560 L 495.9599609375 560 L 495.9599609375 604 L 440 604 L 440 560 Z Z" stroke-miterlimit="10"/></g><g transform="translate(-22,2) scale(1,1)"><path fill="none" stroke="#000000" d="M 440 585 L 495.9599609375 585" stroke-miterlimit="10"/></g><g transform="translate(-22,2) scale(1,1)"><path fill="none" stroke="#000000" d="M 440 595 L 495.9599609375 595" stroke-miterlimit="10"/></g><g transform="translate(-22,2) scale(1,1)"><g><path fill="none" stroke="none"/><text fill="#000000" stroke="none" font-family="Arial" font-size="13px" font-style="normal" font-weight="bold" text-decoration="none" x="445.58544921875" y="579.5">Form16</text></g></g><g transform="translate(-22,2) scale(1,1)"><path fill="none" stroke="#000000" d="M 255 358 L 121 436" stroke-miterlimit="10"/></g><g transform="translate(-22,2) scale(1,1)"><path fill="#FFFFFF" stroke="none" d="M 134.3307558450471 418.4988300791135 L 121 436 L 142.80146378613188 433.05107192661814"/></g><g transform="translate(-22,2) scale(1,1)"><path fill="none" stroke="#000000" d="M 134.3307558450471 418.4988300791135 L 121 436 L 142.80146378613188 433.05107192661814 L 134.3307558450471 418.4988300791135" stroke-miterlimit="10"/></g><g transform="translate(-22,2) scale(1,1)"><path fill="none" stroke="#000000" d="M 255 316 L 108 304" stroke-miterlimit="10"/></g><g transform="translate(-22,2) scale(1,1)"><path fill="#FFFFFF" stroke="none" d="M 128.94295301933354 297.2625881207998 L 108 304 L 127.57297372547127 314.0448344706128"/></g><g transform="translate(-22,2) scale(1,1)"><path fill="none" stroke="#000000" d="M 128.94295301933354 297.2625881207998 L 108 304 L 127.57297372547127 314.0448344706128 L 128.94295301933354 297.2625881207998" stroke-miterlimit="10"/></g><g transform="translate(-22,2) scale(1,1)"><path fill="none" stroke="#000000" d="M 361 396 L 454 559" stroke-miterlimit="10"/></g><g transform="translate(-22,2) scale(1,1)"><path fill="#FFFFFF" stroke="none" d="M 436.61493958405885 545.5181724408715 L 454 559 L 451.23999757839766 537.1738141987028"/></g><g transform="translate(-22,2) scale(1,1)"><path fill="none" stroke="#000000" d="M 436.61493958405885 545.5181724408715 L 454 559 L 451.23999757839766 537.1738141987028 L 436.61493958405885 545.5181724408715" stroke-miterlimit="10"/></g><g transform="translate(-22,2) scale(1,1)"><path fill="#ffffff" stroke="none" d="M 544 320 L 625.708984375 320 L 635.708984375 330 L 635.708984375 369 L 544 369 L 544 320"/></g><g transform="translate(-22,2) scale(1,1)"><path fill="none" stroke="#000000" d="M 544 320 L 625.708984375 320 L 635.708984375 330 L 635.708984375 369 L 544 369 L 544 320 L 544 320" stroke-miterlimit="10"/></g><g transform="translate(-22,2) scale(1,1)"><path fill="none" stroke="#000000" d="M 625.708984375 320 L 625.708984375 330 L 635.708984375 330 L 625.708984375 320" stroke-miterlimit="10"/></g><g transform="translate(-22,2) scale(1,1)"><g><path fill="none" stroke="none"/><text fill="#000000" stroke="none" font-family="Arial" font-size="13px" font-style="normal" font-weight="normal" text-decoration="none" x="549" y="338">¿Es</text><text fill="#000000" stroke="none" font-family="Arial" font-size="13px" font-style="normal" font-weight="normal" text-decoration="none" x="549" y="351">básicamente</text><text fill="#000000" stroke="none" font-family="Arial" font-size="13px" font-style="normal" font-weight="normal" text-decoration="none" x="549" y="364">un diálogo?</text></g></g></g></svg>